<svg width="92" height="92" viewBox="0 0 92 92" fill="none" xmlns="http://www.w3.org/2000/svg">
<path d="M83.3513 58.6425C82.7861 58.3163 82.181 58.0714 81.5547 57.9091V34.0905C82.1806 33.9286 82.786 33.6837 83.3516 33.3574C86.7828 31.3761 87.9629 26.9718 85.9819 23.5387C83.9931 20.0959 79.5988 18.9229 76.1656 20.9074C75.6062 21.2295 75.0957 21.6259 74.645 22.0816L52.9176 9.13064C53.0944 8.5012 53.1875 7.84749 53.1875 7.1875C53.1875 3.22431 49.9632 0 46 0C42.0368 0 38.8125 3.22431 38.8125 7.1875C38.8125 7.84749 38.9056 8.5012 39.0824 9.13064L17.3549 22.0818C16.9046 21.6263 16.3947 21.2303 15.8366 20.909C12.3986 18.9213 8.00596 20.0975 6.01736 23.5396C4.03702 26.972 5.21703 31.3761 8.6487 33.3577C9.21418 33.684 9.81936 33.9288 10.4452 34.0907V57.9095C9.819 58.0718 9.21364 58.3167 8.64834 58.643C5.21721 60.6242 4.03702 65.0285 6.01807 68.4617C8.00021 71.893 12.4047 73.0735 15.8344 71.093C16.3938 70.7708 16.9043 70.3744 17.3549 69.9187L39.0824 82.8699C38.9056 83.4988 38.8125 84.1525 38.8125 84.8125C38.8125 88.7757 42.0368 92 46 92C49.9632 92 53.1875 88.7757 53.1875 84.8125C53.1875 84.1525 53.0944 83.4988 52.9176 82.8694L74.645 69.9182C75.0955 70.3739 75.6057 70.7701 76.1641 71.0917C79.6093 73.0807 84.0075 71.8791 85.9826 68.4606C87.9629 65.0282 86.7829 60.624 83.3513 58.6425ZM77.9619 24.0201C79.6844 23.0248 81.8785 23.6197 82.8699 25.3356C83.8603 27.0521 83.2704 29.2546 81.5553 30.2448C79.8378 31.2356 77.6363 30.6479 76.6444 28.9302C75.6693 27.2401 76.2164 25.0256 77.9619 24.0201ZM51.1103 12.2371L72.8412 25.1902C72.4938 26.4342 72.4848 27.7526 72.8182 28.9992L62.1817 34.6511C58.8467 29.9099 53.5621 26.8498 47.7969 26.319V14.143C49.0516 13.8171 50.1989 13.1573 51.1103 12.2371ZM46 51.3906C50.6501 51.3906 54.4861 54.9418 54.9393 59.4748C52.2898 61.2406 49.2194 62.1719 46 62.1719C42.7807 62.1719 39.7106 61.2406 37.0607 59.4748C37.5139 54.9418 41.3498 51.3906 46 51.3906ZM40.6094 42.4062C40.6094 39.4339 43.0276 37.0156 46 37.0156C48.9724 37.0156 51.3906 39.4339 51.3906 42.4062C51.3906 45.3786 48.9724 47.7969 46 47.7969C43.0276 47.7969 40.6094 45.3786 40.6094 42.4062ZM51.8294 49.2346C53.7582 47.5854 54.9844 45.137 54.9844 42.4062C54.9844 37.4523 50.954 33.4219 46 33.4219C41.046 33.4219 37.0156 37.4523 37.0156 42.4062C37.0156 45.137 38.2418 47.5854 40.1707 49.2346C37.198 50.7964 34.9242 53.5117 33.9473 56.7829C31.2787 53.8042 29.8281 49.9731 29.8281 46C29.8281 36.9364 37.2201 29.8281 46 29.8281C51.7552 29.8281 57.1234 32.9263 60.0093 37.9139V37.9137C61.424 40.3593 62.1719 43.1555 62.1719 46C62.1719 49.9758 60.7198 53.8058 58.0527 56.7829C57.0759 53.5117 54.802 50.7964 51.8294 49.2346ZM46 3.59375C47.9816 3.59375 49.5937 5.20591 49.5937 7.1875C49.5937 9.18293 47.9641 10.7812 46 10.7812C44.039 10.7812 42.4062 9.18527 42.4062 7.1875C42.4062 5.20591 44.0184 3.59375 46 3.59375ZM40.8902 12.2367C41.8019 13.1574 42.9491 13.8171 44.2031 14.143V26.319C38.4378 26.8498 33.1532 29.9099 29.8182 34.6511L19.1818 28.9992C19.5149 27.7527 19.5061 26.4344 19.1586 25.1902L40.8902 12.2367ZM9.12972 25.3363C10.1162 23.6291 12.3061 23.019 14.0406 24.0215C15.7668 25.0159 16.3402 27.2241 15.3563 28.9295C14.377 30.6252 12.1826 31.2475 10.4454 30.245C8.72974 29.2546 8.13964 27.0521 9.12972 25.3363ZM14.039 67.9794C12.3231 68.9702 10.1211 68.3797 9.13026 66.6644C8.13982 64.9479 8.72974 62.7454 10.4449 61.7552C12.1909 60.7479 14.3779 61.3795 15.3557 63.0698C16.3341 64.7658 15.7778 66.9778 14.039 67.9794ZM14.039 57.9113V34.0874C15.3189 33.7548 16.4863 33.0745 17.4068 32.1258L28.0267 37.7687C26.8507 40.3386 26.2344 43.1498 26.2344 46C26.2344 48.85 26.8505 51.6612 28.0267 54.2311L17.4065 59.8744C16.4856 58.9253 15.3185 58.2443 14.039 57.9113ZM40.8897 79.7629L19.1588 66.8098C19.506 65.566 19.5149 64.2478 19.1816 63.0008L29.8191 57.3483C33.0375 61.9367 38.2111 65.1477 44.2029 65.683V77.857C42.9483 78.1829 41.801 78.8427 40.8897 79.7629ZM46 88.4062C44.0184 88.4062 42.4062 86.7941 42.4062 84.8125C42.4062 82.8171 44.0358 81.2188 46 81.2188C47.9609 81.2188 49.5937 82.8147 49.5937 84.8125C49.5937 86.7941 47.9816 88.4062 46 88.4062ZM51.1098 79.7633C50.198 78.8426 49.0509 78.1829 47.7969 77.857V65.683C53.7826 65.1482 58.9589 61.9413 62.1807 57.3483L72.818 63.0008C72.4848 64.2473 72.4936 65.5656 72.8412 66.8098L51.1098 79.7633ZM74.5937 59.8746L63.9732 54.2313C65.1493 51.6614 65.7656 48.8502 65.7656 46C65.7656 43.1498 65.1493 40.3386 63.9732 37.7689L74.5929 32.126C75.5137 33.0749 76.6811 33.7554 77.9608 34.0878V57.9111H77.961C76.682 58.2441 75.5149 58.9251 74.5937 59.8746ZM82.8702 66.6637C81.8787 68.3797 79.6767 68.9695 77.9594 67.9785C76.2232 66.9785 75.6657 64.7657 76.643 63.0716C77.6187 61.3852 79.8028 60.7437 81.5546 61.7548C83.2702 62.7454 83.8603 64.9479 82.8702 66.6637Z" fill="#777777"/>
</svg>
