<svg width="92" height="92" viewBox="0 0 92 92" fill="none" xmlns="http://www.w3.org/2000/svg">
<path d="M46 44.2031C45.0081 44.2031 44.2031 45.0081 44.2031 46C44.2031 46.9919 45.0081 47.7969 46 47.7969C46.9919 47.7969 47.7969 46.9919 47.7969 46C47.7969 45.0081 46.9919 44.2031 46 44.2031Z" fill="#777777"/>
<path d="M90.2031 44.2031H83.6905C82.7774 24.8231 67.1769 9.22264 47.7969 8.30947V1.79688C47.7969 0.804461 46.9922 0 46 0C45.0078 0 44.2031 0.804461 44.2031 1.79688V8.30947C24.8233 9.22264 9.22264 24.8231 8.30947 44.2031H1.79688C0.804641 44.2031 0 45.0076 0 46C0 46.9924 0.804641 47.7969 1.79688 47.7969H8.30947C9.22264 67.1769 24.8233 82.7774 44.2031 83.6905V90.2031C44.2031 91.1955 45.0078 92 46 92C46.9922 92 47.7969 91.1955 47.7969 90.2031V83.6905C67.1769 82.7774 82.7774 67.1769 83.6905 47.7969H90.2031C91.1954 47.7969 92 46.9924 92 46C92 45.0076 91.1954 44.2031 90.2031 44.2031ZM47.7969 11.9066C65.1949 12.8132 79.1868 26.8051 80.0934 44.2031H72.8917C72.0031 30.77 61.23 19.9969 47.7969 19.1081V11.9066ZM47.7969 22.7091C59.2478 23.5843 68.4158 32.7522 69.2909 44.2031H62.0714C61.2402 36.7188 55.2812 30.7598 47.7969 29.9286V22.7091ZM69.2909 47.7789C68.4158 59.2298 59.2478 68.4158 47.7969 69.2909V62.0714C55.2812 61.2402 61.2402 55.2632 62.0714 47.7789H69.2909ZM44.2031 11.9066V19.1083C30.77 19.9971 19.9969 30.77 19.1081 44.2033H11.9066C12.8132 26.8051 26.8051 12.8132 44.2031 11.9066ZM22.7091 44.2031C23.5843 32.7522 32.7522 23.5842 44.2031 22.7091V29.9286C36.7188 30.7598 30.7598 36.7188 29.9286 44.2031H22.7091ZM44.2031 62.0714V69.2909C32.7522 68.4158 23.5842 59.2478 22.7091 47.7969H29.9286C30.7598 55.2812 36.7188 61.2402 44.2031 62.0714ZM44.2033 80.0936C26.8051 79.1868 12.8132 65.1949 11.9066 47.7969H19.1083C19.9971 61.23 30.7702 72.0031 44.2033 72.8919V80.0936ZM46 51.3906C45.0078 51.3906 44.2031 52.1951 44.2031 53.1875V58.4477C38.7032 57.6572 34.3428 53.2968 33.5523 47.7969H38.8125C39.8047 47.7969 40.6094 46.9924 40.6094 46C40.6094 45.0076 39.8047 44.2031 38.8125 44.2031H33.5523C34.3428 38.7031 38.7032 34.3428 44.2031 33.5523V38.8125C44.2031 39.8049 45.0078 40.6094 46 40.6094C46.9922 40.6094 47.7969 39.8049 47.7969 38.8125V33.5523C53.2968 34.3428 57.6572 38.7032 58.4477 44.2031H53.1875C52.1953 44.2031 51.3906 45.0076 51.3906 46C51.3906 46.9924 52.1953 47.7789 53.1875 47.7789H58.4477C57.6572 53.279 53.2968 57.6572 47.7969 58.4477V53.1875C47.7969 52.1951 46.9922 51.3906 46 51.3906ZM47.7969 80.0934V72.8917C61.23 72.0029 72.0031 61.212 72.8919 47.7787H80.0936C79.1868 65.177 65.1949 79.1868 47.7969 80.0934Z" fill="#777777"/>
</svg>
